Patient4_TMGait_0pt7_01_left_25_EMG.mot
version=1
nRows=16
nColumns=33
inDegrees=no
endheader
time	1LAddLong	2LGlutMax	3LGlutMed	4LIliopsoas	5LSemiMemb	6LBicFemLong	7LRecFem	8LVastMed	9LVastLat	10LGasMed	11LTibAnt	12lTibPost	13LPeroneusLong	14LSol	15LExtDigLong	16LFlexDigLong	17RAddLong	18RGlutMax	19RGlutMed	20RIliopsoas	21RSemiMemb	22RBicFemLong	23RRecFem	24RVastMed	25RVastLat	26RGasMed	27RTibAnt	28RTibPost	29RPeroneusLong	30RSol	31RExtDigLong	32RFlexDigLong
30.005	-0.005493	0.076752	-0.071564	0.018463	-0.054321	-0.028687	-0.075226	0.010834	0.027924	-0.036011	0.028229	-0.003357	0.056	-0.08728	0.013275	0.002747	-0.012512	-0.21332	-0.055084	0.001068	-0.052643	-0.069275	-0.043182	0.059509	-0.027313	-0.018311	0.66467	-0.012512	0.86838	-0.049591	-0.00473	-0.010223
30.006	0.054932	0.059814	-0.055695	0.01358	-0.036163	-0.070648	-0.054474	0.009766	0.03418	-0.025024	0.011749	0.000305	0.045624	-0.068054	0.049286	0.002441	0.004883	-0.24307	-0.43304	-0.034332	-0.049133	-0.057526	0.062866	0.059967	0.001831	-0.01358	-0.45822	-0.007629	1.1632	-0.11139	-0.004425	-0.016327
30.007	0.022888	0.10803	-0.015411	0.017242	0.005341	-0.073853	-0.07843	0.002441	0.032349	-0.03952	0.010376	-0.003052	0.042114	0.022278	0.04364	0.021515	-0.004425	-0.20264	-0.3688	-0.089722	-0.037384	-0.04425	-0.086365	0.068054	0.072937	-0.001678	-0.57724	0.007172	-0.15945	-0.15503	0.000763	-0.008698
30.008	0.019684	0.10086	0.006256	-0.00473	0.05188	-0.089264	-0.08667	0.002594	0.0354	-0.074768	-0.005646	0.004578	0.069427	-0.080872	-0.000305	-0.002136	-0.022888	-0.28015	-0.49042	-0.004425	0.03067	-0.045319	0.037994	0.04837	0.12039	0.000153	-0.30075	0.013733	-0.028381	-0.21668	-0.005341	-0.011902
30.009	0.029144	0.1181	-0.10162	-0.010681	0.052032	-0.068665	-0.084991	-0.001068	0.034027	-0.054321	0.002289	-0.001831	0.064087	-0.074463	-0.03067	0.001526	-0.035706	-0.27313	-0.51819	0.14236	0.045776	-0.030212	0.23377	0.000305	-0.003357	0.003815	-0.103	0.000305	-0.21744	-0.07843	-0.000916	-0.010529
30.01	0.033112	0.097961	-0.19333	0.010681	0.003357	-0.060883	-0.093689	-0.002747	0.029602	-0.038757	0.029602	-0.003662	0.028381	-0.003052	-0.032501	-0.006256	-0.015564	-0.27237	-0.36163	0.18051	0.02243	-0.061035	0.18997	-0.036621	-0.053101	0.000763	0.083923	-0.007477	-0.18463	-0.14954	-0.000305	-0.018616
30.011	0.014343	0.10773	-0.21179	0.001526	-0.009766	-0.054932	-0.090942	0.002594	0.019989	-0.047607	0.029755	-0.002747	0.023499	0.005188	-0.097961	-0.008392	-0.009155	-0.24063	0.041199	0.15671	-0.022125	-0.041199	0.032959	0.12512	0.061493	0.000153	0.22568	-0.002136	-0.24612	-0.09613	-0.003967	-0.011902
30.012	0.010681	0.10681	-0.088654	0.003357	-0.003815	-0.048218	-0.080719	-0.000763	0.027161	-0.045471	0.021362	-0.005341	0.039978	-0.000916	-0.11383	-0.002594	-0.007172	-0.17822	0.20248	0.25681	-0.024872	-0.026245	-0.097504	0.61295	0.047607	-0.0177	0.30395	-0.000458	-0.9079	0.2269	0.001373	-0.006409
30.013	0.010071	0.11124	0.052185	-0.007019	-0.002441	-0.043793	-0.084839	0.002441	0.032349	-0.04364	0.013733	-0.004272	0.046539	-0.072479	-0.043335	-0.006714	0.003357	-0.17593	-0.30868	0.21835	-0.020447	-0.032349	-0.21225	0.60898	0.28961	-0.007782	0.17425	0.005341	-0.66452	0.30746	-0.003052	-0.000916
30.014	0.016479	0.06546	0.10864	0.008087	-0.003052	-0.036774	-0.094147	0.007324	0.032959	-0.037842	0.014496	0.006561	0.037231	-0.15686	-0.019531	0.000153	-0.002899	-0.27725	0.07431	0.11963	0.004578	-0.029907	-0.42419	0.298	0.62042	0.001221	0.2832	0.002441	-0.81345	0.32532	0.007629	-0.006104
30.015	0.008545	0.039978	0.1181	0.016479	-0.002441	-0.00061	-0.095825	0.006256	0.03418	-0.039215	0.018311	0.007172	0.029602	-0.1561	-0.009918	-0.010681	-0.010834	-0.32135	0.069885	0.059509	0.011292	-0.046539	-0.56656	-0.017395	0.49835	-0.007324	0.19913	0.004578	-0.051422	0.34454	-0.002594	-0.002747
30.016	0.003967	-0.002289	0.10025	0.016174	-0.023499	0.014191	-0.098724	0.010223	0.023193	-0.045471	0.002136	0.005951	0.019684	-0.15625	0.018005	0.007629	-0.009613	-0.32364	-0.50247	0.040741	0.025177	-0.040894	-0.49972	-0.35645	0.45593	-0.017395	0.21668	-0.003357	0.86655	0.44632	-0.003662	-0.002899
30.017	0.009613	-0.013428	0.000916	0.010223	-0.073853	0.01709	-0.10941	0.007782	0.019226	-0.0383	-0.00351	-0.000153	0.041199	-0.09552	0.019531	-0.009155	-0.00061	-0.28641	-0.15457	0.009308	0.012817	-0.080872	-0.32074	-0.63126	0.28519	-0.024414	0.49988	-0.005951	0.082092	0.29739	-0.001984	-0.007629
30.018	0.005341	0.007019	-0.065765	0.010986	-0.080109	-0.005493	-0.11566	0.007782	0.022583	-0.036316	0.001373	-0.00824	0.023346	-0.031433	0.018005	0.010834	-0.001984	-0.29373	0.14099	-0.039978	-0.023193	-0.076752	-0.24094	-0.55756	0.18967	-0.018921	0.48553	-0.000458	0.017853	-0.070953	-0.005798	0.000763
30.019	0.01709	0.007477	-0.007172	-0.004883	-0.028992	-0.05661	-0.11063	0.006409	0.022736	-0.028381	0.06897	0.003204	0.015564	-0.020905	0.028076	0.000916	-0.005646	-0.28122	-0.25223	0.033875	-0.036011	-0.058594	0.024567	-0.19959	-0.12054	-0.006409	0.21912	0.00061	0.21484	-0.25467	0.001221	0.000916
30.02	0.013123	0.007935	0.059357	0.003204	0.019836	-0.072174	-0.11688	0.005951	0.032349	-0.046997	0.14908	-0.008087	0.032959	-0.04303	0.054321	0.00351	0.002289	-0.32715	-0.20508	-0.02182	-0.031738	-0.046844	0.23224	-0.18204	-0.61081	-0.005493	0.16174	0	0.24536	-0.069885	-0.002136	0.001221
